<mxfile host="app.diagrams.net" modified="2024-03-21T08:41:39.401Z" agent="Mozilla/5.0 (Windows NT 10.0; Win64; x64; rv:123.0) Gecko/20100101 Firefox/123.0" etag="37E6gOxq67kuw_PUYqCH" version="24.0.7" type="device">
  <diagram id="C5RBs43oDa-KdzZeNtuy" name="Page-1">
    <mxGraphModel dx="2261" dy="774" grid="1" gridSize="10" guides="1" tooltips="1" connect="1" arrows="1" fold="1" page="1" pageScale="1" pageWidth="827" pageHeight="1169" math="0" shadow="0">
      <root>
        <mxCell id="WIyWlLk6GJQsqaUBKTNV-0" />
        <mxCell id="WIyWlLk6GJQsqaUBKTNV-1" parent="WIyWlLk6GJQsqaUBKTNV-0" />
        <mxCell id="cr0uNMZGWNSV90yH3yMW-5" style="edgeStyle=orthogonalEdgeStyle;rounded=0;orthogonalLoop=1;jettySize=auto;html=1;exitX=0.5;exitY=1;exitDx=0;exitDy=0;entryX=0.5;entryY=0;entryDx=0;entryDy=0;" edge="1" parent="WIyWlLk6GJQsqaUBKTNV-1" source="WIyWlLk6GJQsqaUBKTNV-3" target="cr0uNMZGWNSV90yH3yMW-2">
          <mxGeometry relative="1" as="geometry" />
        </mxCell>
        <mxCell id="WIyWlLk6GJQsqaUBKTNV-3" value="START" style="rounded=1;whiteSpace=wrap;html=1;fontSize=12;glass=0;strokeWidth=1;shadow=0;" parent="WIyWlLk6GJQsqaUBKTNV-1" vertex="1">
          <mxGeometry x="160" y="80" width="120" height="40" as="geometry" />
        </mxCell>
        <mxCell id="cr0uNMZGWNSV90yH3yMW-9" style="edgeStyle=orthogonalEdgeStyle;rounded=0;orthogonalLoop=1;jettySize=auto;html=1;exitX=0.5;exitY=1;exitDx=0;exitDy=0;entryX=0.5;entryY=0;entryDx=0;entryDy=0;" edge="1" parent="WIyWlLk6GJQsqaUBKTNV-1" source="cr0uNMZGWNSV90yH3yMW-1" target="cr0uNMZGWNSV90yH3yMW-8">
          <mxGeometry relative="1" as="geometry" />
        </mxCell>
        <mxCell id="cr0uNMZGWNSV90yH3yMW-1" value="&lt;div&gt;Initialise ADC&lt;/div&gt;Initialise LCD" style="rounded=0;whiteSpace=wrap;html=1;" vertex="1" parent="WIyWlLk6GJQsqaUBKTNV-1">
          <mxGeometry x="120" y="280" width="200" height="60" as="geometry" />
        </mxCell>
        <mxCell id="cr0uNMZGWNSV90yH3yMW-3" style="edgeStyle=orthogonalEdgeStyle;rounded=0;orthogonalLoop=1;jettySize=auto;html=1;exitX=0.5;exitY=1;exitDx=0;exitDy=0;entryX=0.5;entryY=0;entryDx=0;entryDy=0;" edge="1" parent="WIyWlLk6GJQsqaUBKTNV-1" source="cr0uNMZGWNSV90yH3yMW-2" target="cr0uNMZGWNSV90yH3yMW-1">
          <mxGeometry relative="1" as="geometry" />
        </mxCell>
        <mxCell id="cr0uNMZGWNSV90yH3yMW-2" value="Set reading_range to true" style="rounded=0;whiteSpace=wrap;html=1;" vertex="1" parent="WIyWlLk6GJQsqaUBKTNV-1">
          <mxGeometry x="160" y="160" width="120" height="60" as="geometry" />
        </mxCell>
        <mxCell id="cr0uNMZGWNSV90yH3yMW-10" style="edgeStyle=orthogonalEdgeStyle;rounded=0;orthogonalLoop=1;jettySize=auto;html=1;exitX=0.5;exitY=1;exitDx=0;exitDy=0;entryX=0.5;entryY=0;entryDx=0;entryDy=0;" edge="1" parent="WIyWlLk6GJQsqaUBKTNV-1" source="cr0uNMZGWNSV90yH3yMW-8">
          <mxGeometry relative="1" as="geometry">
            <mxPoint x="220" y="520" as="targetPoint" />
          </mxGeometry>
        </mxCell>
        <mxCell id="cr0uNMZGWNSV90yH3yMW-12" style="edgeStyle=orthogonalEdgeStyle;rounded=0;orthogonalLoop=1;jettySize=auto;html=1;exitX=1;exitY=0.5;exitDx=0;exitDy=0;entryX=0;entryY=0.5;entryDx=0;entryDy=0;dashed=1;" edge="1" parent="WIyWlLk6GJQsqaUBKTNV-1" source="cr0uNMZGWNSV90yH3yMW-8" target="cr0uNMZGWNSV90yH3yMW-11">
          <mxGeometry relative="1" as="geometry" />
        </mxCell>
        <mxCell id="cr0uNMZGWNSV90yH3yMW-8" value="Attach Interrupt to INT0" style="rounded=1;whiteSpace=wrap;html=1;" vertex="1" parent="WIyWlLk6GJQsqaUBKTNV-1">
          <mxGeometry x="160" y="400" width="120" height="60" as="geometry" />
        </mxCell>
        <mxCell id="cr0uNMZGWNSV90yH3yMW-14" style="edgeStyle=orthogonalEdgeStyle;rounded=0;orthogonalLoop=1;jettySize=auto;html=1;exitX=0.5;exitY=1;exitDx=0;exitDy=0;entryX=0.5;entryY=0;entryDx=0;entryDy=0;" edge="1" parent="WIyWlLk6GJQsqaUBKTNV-1" source="cr0uNMZGWNSV90yH3yMW-11" target="cr0uNMZGWNSV90yH3yMW-13">
          <mxGeometry relative="1" as="geometry" />
        </mxCell>
        <mxCell id="cr0uNMZGWNSV90yH3yMW-11" value="&lt;div&gt;INT0 Interrupt Triggered&lt;/div&gt;" style="rounded=1;whiteSpace=wrap;html=1;" vertex="1" parent="WIyWlLk6GJQsqaUBKTNV-1">
          <mxGeometry x="360" y="400" width="120" height="60" as="geometry" />
        </mxCell>
        <mxCell id="cr0uNMZGWNSV90yH3yMW-13" value="&lt;div&gt;Toggle reading_range&lt;/div&gt;" style="rounded=0;whiteSpace=wrap;html=1;" vertex="1" parent="WIyWlLk6GJQsqaUBKTNV-1">
          <mxGeometry x="360" y="520" width="120" height="60" as="geometry" />
        </mxCell>
        <mxCell id="cr0uNMZGWNSV90yH3yMW-18" value="TRUE" style="edgeStyle=orthogonalEdgeStyle;rounded=0;orthogonalLoop=1;jettySize=auto;html=1;exitX=0.5;exitY=1;exitDx=0;exitDy=0;entryX=0.5;entryY=0;entryDx=0;entryDy=0;" edge="1" parent="WIyWlLk6GJQsqaUBKTNV-1" source="cr0uNMZGWNSV90yH3yMW-16" target="cr0uNMZGWNSV90yH3yMW-17">
          <mxGeometry relative="1" as="geometry" />
        </mxCell>
        <mxCell id="cr0uNMZGWNSV90yH3yMW-19" value="FALSE" style="edgeStyle=orthogonalEdgeStyle;rounded=0;orthogonalLoop=1;jettySize=auto;html=1;exitX=0;exitY=0.5;exitDx=0;exitDy=0;" edge="1" parent="WIyWlLk6GJQsqaUBKTNV-1" source="cr0uNMZGWNSV90yH3yMW-16" target="cr0uNMZGWNSV90yH3yMW-20">
          <mxGeometry relative="1" as="geometry">
            <mxPoint x="160" y="760" as="targetPoint" />
            <Array as="points">
              <mxPoint x="80" y="560" />
              <mxPoint x="80" y="790" />
            </Array>
          </mxGeometry>
        </mxCell>
        <mxCell id="cr0uNMZGWNSV90yH3yMW-16" value="reading_range" style="rhombus;whiteSpace=wrap;html=1;" vertex="1" parent="WIyWlLk6GJQsqaUBKTNV-1">
          <mxGeometry x="160" y="520" width="120" height="80" as="geometry" />
        </mxCell>
        <mxCell id="cr0uNMZGWNSV90yH3yMW-21" style="edgeStyle=orthogonalEdgeStyle;rounded=0;orthogonalLoop=1;jettySize=auto;html=1;exitX=0.5;exitY=1;exitDx=0;exitDy=0;entryX=0.5;entryY=0;entryDx=0;entryDy=0;" edge="1" parent="WIyWlLk6GJQsqaUBKTNV-1" source="cr0uNMZGWNSV90yH3yMW-17" target="cr0uNMZGWNSV90yH3yMW-20">
          <mxGeometry relative="1" as="geometry" />
        </mxCell>
        <mxCell id="cr0uNMZGWNSV90yH3yMW-17" value="&lt;div&gt;Read range info from ADC into current_range&lt;/div&gt;" style="rounded=0;whiteSpace=wrap;html=1;" vertex="1" parent="WIyWlLk6GJQsqaUBKTNV-1">
          <mxGeometry x="160" y="640" width="120" height="60" as="geometry" />
        </mxCell>
        <mxCell id="cr0uNMZGWNSV90yH3yMW-24" style="edgeStyle=orthogonalEdgeStyle;rounded=0;orthogonalLoop=1;jettySize=auto;html=1;exitX=0.5;exitY=1;exitDx=0;exitDy=0;entryX=0.5;entryY=0;entryDx=0;entryDy=0;" edge="1" parent="WIyWlLk6GJQsqaUBKTNV-1" source="cr0uNMZGWNSV90yH3yMW-20" target="cr0uNMZGWNSV90yH3yMW-22">
          <mxGeometry relative="1" as="geometry" />
        </mxCell>
        <mxCell id="cr0uNMZGWNSV90yH3yMW-20" value="scaled_range = (current_range - min_range) / (max_range - min_range)" style="rounded=0;whiteSpace=wrap;html=1;" vertex="1" parent="WIyWlLk6GJQsqaUBKTNV-1">
          <mxGeometry x="120" y="760" width="200" height="60" as="geometry" />
        </mxCell>
        <mxCell id="cr0uNMZGWNSV90yH3yMW-26" style="edgeStyle=orthogonalEdgeStyle;rounded=0;orthogonalLoop=1;jettySize=auto;html=1;exitX=0.5;exitY=1;exitDx=0;exitDy=0;entryX=0.5;entryY=0;entryDx=0;entryDy=0;" edge="1" parent="WIyWlLk6GJQsqaUBKTNV-1" source="cr0uNMZGWNSV90yH3yMW-22" target="cr0uNMZGWNSV90yH3yMW-25">
          <mxGeometry relative="1" as="geometry" />
        </mxCell>
        <mxCell id="cr0uNMZGWNSV90yH3yMW-22" value="range = scaled_range * (max_dist - min_dist) + min_dist" style="rounded=0;whiteSpace=wrap;html=1;" vertex="1" parent="WIyWlLk6GJQsqaUBKTNV-1">
          <mxGeometry x="120" y="880" width="200" height="60" as="geometry" />
        </mxCell>
        <mxCell id="cr0uNMZGWNSV90yH3yMW-27" style="edgeStyle=orthogonalEdgeStyle;rounded=0;orthogonalLoop=1;jettySize=auto;html=1;exitX=0.5;exitY=1;exitDx=0;exitDy=0;" edge="1" parent="WIyWlLk6GJQsqaUBKTNV-1" source="cr0uNMZGWNSV90yH3yMW-25">
          <mxGeometry relative="1" as="geometry">
            <mxPoint x="220" y="490" as="targetPoint" />
            <Array as="points">
              <mxPoint x="220" y="1080" />
              <mxPoint y="1080" />
              <mxPoint y="488" />
              <mxPoint x="220" y="488" />
            </Array>
          </mxGeometry>
        </mxCell>
        <mxCell id="cr0uNMZGWNSV90yH3yMW-25" value="Display range on LCD" style="rounded=0;whiteSpace=wrap;html=1;" vertex="1" parent="WIyWlLk6GJQsqaUBKTNV-1">
          <mxGeometry x="160" y="1000" width="120" height="60" as="geometry" />
        </mxCell>
      </root>
    </mxGraphModel>
  </diagram>
</mxfile>
